<svg width="875" height="772" viewBox="0 0 875 772" fill="none" xmlns="http://www.w3.org/2000/svg">
<g clip-path="url(#clip0_5_6)">
<path d="M510.582 90.7817C503.971 79.848 496.137 68.174 483.869 64.6038C469.662 60.4693 455.068 68.6826 442.688 76.7875C405.667 101.026 370.014 127.295 335.895 155.472L335.932 155.896C362.496 154.064 389.059 152.232 415.623 150.401C434.815 149.077 454.667 147.571 471.628 138.492C478.064 135.047 484.337 130.445 491.63 130.124C500.691 129.725 508.592 136.054 514.801 142.665C551.527 181.774 562.155 241.581 603.359 275.941C577.377 211.866 546.354 149.952 510.582 90.7817Z" fill="#F2F2F2"/>
<path d="M736.335 422.498C732.273 417.369 730.614 416.168 726.607 410.992C693.988 368.803 663.328 325.189 634.627 280.15C615.133 249.561 596.605 218.385 579.044 186.622C570.684 171.521 562.553 156.301 554.651 140.963C548.519 129.071 542.524 117.107 536.666 105.072C534.99 101.635 533.362 98.1817 531.743 94.7206C527.926 86.5815 524.18 78.4029 520.158 70.3744C515.575 61.2238 509.996 51.6307 501.58 45.4829C497.75 42.5702 493.17 40.8079 488.376 40.4019C481.525 39.9594 475.203 42.7883 469.261 45.878C425.74 68.7566 385.118 96.769 348.265 129.316C311.355 161.732 278.363 198.354 249.963 238.435C249.094 239.676 247.039 238.491 247.916 237.242C251.37 232.359 254.891 227.528 258.482 222.75C303.123 163.378 357.859 112.322 420.189 71.9153C430.675 65.1195 441.359 58.6425 452.24 52.4841C457.724 49.3786 463.232 46.3126 468.834 43.4363C474.326 40.6153 480.158 38.0787 486.432 37.9838C507.783 37.652 518.839 61.8322 526.432 78.1026C528.819 83.2231 531.234 88.3279 533.678 93.4168C542.916 112.737 552.509 131.881 562.458 150.849C568.598 162.56 574.872 174.202 581.281 185.776C601.225 221.817 622.424 257.129 644.876 291.711C674.62 337.519 704.126 377.986 738.01 420.823C738.942 422.008 737.275 423.699 736.335 422.498Z" fill="#E4E4E4"/>
<path d="M346.157 117.375C344.917 115.993 343.684 114.61 342.436 113.227C332.59 102.338 322.025 91.5751 308.504 85.3325C302.057 82.262 295.02 80.6307 287.88 80.5518C280.499 80.5755 273.285 82.5115 266.465 85.2219C263.241 86.5099 260.088 87.9718 256.983 89.5285C253.435 91.3144 249.95 93.2188 246.481 95.139C239.97 98.7423 233.543 102.504 227.2 106.423C214.58 114.222 202.356 122.617 190.527 131.607C184.394 136.269 178.389 141.084 172.51 146.052C167.042 150.667 161.684 155.405 156.437 160.268C155.315 161.303 153.64 159.628 154.762 158.593C156.145 157.305 157.543 156.024 158.942 154.76C162.893 151.188 166.907 147.685 170.985 144.25C178.42 137.976 186.049 131.944 193.869 126.155C206.031 117.146 218.611 108.749 231.609 100.963C238.105 97.075 244.69 93.3505 251.364 89.7893C253.38 88.7146 255.418 87.6636 257.481 86.668C262.16 84.3075 267.023 82.3282 272.02 80.7493C279.1 78.4591 286.59 77.7233 293.98 78.5921C301.115 79.63 307.99 82.0081 314.241 85.6012C327.517 93.0212 337.813 104.495 347.833 115.692C348.844 116.83 347.177 118.513 346.157 117.375Z" fill="#E4E4E4"/>
<path d="M618.163 230.215L649.974 218.58L665.768 212.803C670.912 210.922 676.044 208.78 681.361 207.433C685.983 206.113 690.889 206.175 695.475 207.612C699.565 209.126 703.309 211.447 706.484 214.436C709.727 217.423 712.745 220.646 715.513 224.079C718.951 228.211 722.339 232.387 725.742 236.549C739.788 253.726 753.741 270.978 767.603 288.304C781.464 305.63 795.233 323.029 808.909 340.502C822.618 358.018 836.233 375.607 849.754 393.269C851.411 395.432 853.066 397.597 854.719 399.763C855.633 400.96 857.692 399.78 856.766 398.567C843.145 380.727 829.43 362.96 815.619 345.266C801.775 327.53 787.835 309.869 773.799 292.284C759.764 274.699 745.633 257.19 731.408 239.757C727.864 235.414 724.314 231.076 720.759 226.742C717.759 223.087 714.794 219.392 711.504 215.99C705.466 209.744 697.921 204.225 688.891 204.076C683.581 203.988 678.443 205.672 673.51 207.457C668.191 209.381 662.886 211.341 657.575 213.284L625.541 225L617.533 227.929C616.112 228.449 616.725 230.741 618.163 230.215Z" fill="#E4E4E4"/>
<path d="M304.317 99.0349C288.151 90.7266 267.449 92.3538 252.594 102.734C280.929 107.622 308.954 114.163 336.525 122.323C325.076 115.614 316.12 105.101 304.317 99.0349Z" fill="#F2F2F2"/>
<path d="M252.432 102.705L249.32 105.235C250.373 104.349 251.467 103.519 252.592 102.734C252.538 102.725 252.486 102.714 252.432 102.705Z" fill="#F2F2F2"/>
<path d="M705.285 230.332C702.153 226.52 698.768 222.529 694.084 220.98L689.711 221.153C722.999 279.974 767.957 331.371 821.825 372.19C782.978 324.904 744.131 277.618 705.285 230.332Z" fill="#F2F2F2"/>
<path d="M505.085 541.726C504.967 541.726 504.85 541.706 504.74 541.665L420.479 510.712C420.23 510.62 420.028 510.434 419.917 510.193C419.805 509.952 419.794 509.677 419.886 509.429C419.977 509.18 420.164 508.977 420.404 508.866C420.645 508.755 420.92 508.743 421.169 508.835L505.429 539.788C505.65 539.869 505.835 540.025 505.952 540.228C506.069 540.432 506.11 540.67 506.069 540.902C506.028 541.133 505.907 541.342 505.727 541.493C505.547 541.644 505.32 541.726 505.085 541.726Z" fill="black"/>
<path d="M351.085 483.726C350.967 483.726 350.85 483.706 350.74 483.665L266.479 452.712C266.23 452.62 266.028 452.434 265.917 452.193C265.805 451.952 265.794 451.677 265.886 451.429C265.977 451.18 266.164 450.977 266.404 450.866C266.645 450.755 266.92 450.743 267.169 450.835L351.429 481.788C351.65 481.869 351.835 482.025 351.952 482.228C352.069 482.432 352.11 482.67 352.069 482.902C352.028 483.133 351.907 483.342 351.727 483.493C351.547 483.644 351.32 483.726 351.085 483.726Z" fill="black"/>
<path d="M194.085 425.726C193.967 425.726 193.85 425.706 193.74 425.665L109.479 394.712C109.356 394.666 109.243 394.597 109.146 394.508C109.05 394.419 108.972 394.312 108.917 394.193C108.862 394.074 108.83 393.945 108.825 393.814C108.82 393.683 108.84 393.552 108.886 393.429C108.931 393.305 109 393.192 109.089 393.096C109.178 392.999 109.285 392.921 109.404 392.866C109.523 392.811 109.652 392.78 109.783 392.774C109.915 392.769 110.046 392.789 110.169 392.835L194.43 423.788C194.65 423.869 194.835 424.025 194.952 424.228C195.069 424.432 195.11 424.67 195.069 424.902C195.028 425.133 194.907 425.342 194.727 425.493C194.547 425.644 194.32 425.726 194.085 425.726Z" fill="black"/>
<path d="M178.296 275.384C174.783 274.599 171.225 273.979 167.713 273.547L167.201 273.483C143.88 270.707 124.191 280.441 121.405 296.128L120.91 298.966C120.6 300.761 120.267 302.691 119.87 304.826C119.678 305.88 120.737 306.958 122.277 307.302L683.167 432.683C722.774 441.247 762.254 449.707 800.503 457.827C807.661 459.444 814.912 460.617 822.214 461.338C833.141 462.264 841.141 461.045 846.674 457.613L846.676 457.613C853.552 453.36 855.282 446.456 856.695 438.535C859.541 422.538 862.571 405.742 865.592 388.996C868.253 374.238 870.908 359.519 873.424 345.422C874.902 337.053 875.706 329.553 870.546 322.531C864.95 314.933 852.965 309.036 834.923 305.003C834.705 304.954 834.489 304.906 834.268 304.858C777.675 292.45 716.649 302.308 682.413 329.388C678.471 332.506 674.679 335.941 671.012 339.263C665.587 344.408 659.805 349.164 653.71 353.495C650.345 355.812 646.774 357.815 643.044 359.481C642.787 359.606 642.496 359.736 642.193 359.853C641.488 360.171 640.76 360.467 640.058 360.718C635.971 362.294 631.729 363.433 627.403 364.115L626.971 364.18C626.645 364.236 626.293 364.287 625.944 364.327C623.464 364.66 620.967 364.856 618.466 364.915C607.654 365.224 595.88 363.246 583.474 359.034C572.026 355.102 561.089 349.814 550.896 343.283C540.082 336.368 530.257 328.565 520.756 321.02C516.582 317.704 512.265 314.276 507.927 310.973C507.112 310.352 506.309 309.743 505.493 309.131C500.181 305.162 495.316 301.777 490.622 298.783C479.099 291.395 466.596 285.661 453.479 281.749C439.615 277.719 426.849 276.62 415.548 278.474C412.409 278.987 409.315 279.746 406.295 280.743C392.372 285.34 382.379 294.484 372.715 303.327C360.693 314.326 348.262 325.7 328.104 328.531C304.841 331.804 274.268 321.45 253.411 310.665C246.854 307.274 240.366 303.61 234.093 300.065C231.559 298.633 229.022 297.206 226.482 295.785C221.488 292.999 217.383 290.803 213.563 288.869L212.355 288.255C211.683 287.918 211.009 287.58 210.321 287.248C205.771 285.01 201.496 283.094 197.246 281.388L196.241 280.979C194.22 280.194 192.323 279.493 190.453 278.842L189.706 278.583C185.964 277.311 182.154 276.243 178.296 275.384Z" fill="#F2F2F2"/>
<path d="M847.503 463.709C847.433 463.709 847.364 463.702 847.295 463.687L107.295 307.479C107.037 307.423 106.812 307.267 106.668 307.045C106.525 306.824 106.475 306.554 106.529 306.295C106.584 306.037 106.739 305.811 106.959 305.666C107.18 305.521 107.45 305.469 107.708 305.522L847.708 461.73C847.95 461.781 848.165 461.92 848.31 462.12C848.456 462.32 848.522 462.566 848.497 462.812C848.471 463.058 848.356 463.286 848.172 463.451C847.988 463.617 847.75 463.709 847.503 463.709Z" fill="black"/>
<path d="M694 102C722.167 102 745 79.1665 745 51C745 22.8335 722.167 0 694 0C665.833 0 643 22.8335 643 51C643 79.1665 665.833 102 694 102Z" fill="#FF6584"/>
<path d="M786.036 11.8707C761.32 8.52969 733.101 21.8894 726.695 45.9942C725.081 41.7084 722.145 38.0467 718.314 35.5382C714.482 33.0298 709.952 31.8044 705.378 32.0391C700.804 32.2738 696.423 33.9564 692.869 36.844C689.314 39.7315 686.769 43.6743 685.602 48.1029L688.431 50.1296C741.399 61.5839 796.228 61.336 849.09 49.4032C831.897 31.3343 810.753 15.2116 786.036 11.8707Z" fill="#F0F0F0"/>
<path d="M680.036 79.8707C655.32 76.5297 627.101 89.8893 620.695 113.994C619.081 109.708 616.145 106.047 612.314 103.538C608.482 101.03 603.952 99.8043 599.378 100.039C594.804 100.274 590.423 101.956 586.869 104.844C583.314 107.731 580.769 111.674 579.602 116.103L582.431 118.13C635.399 129.584 690.228 129.336 743.09 117.403C725.897 99.3343 704.753 83.2116 680.036 79.8707Z" fill="#F0F0F0"/>
<path d="M724.39 489.083C723.383 488.072 722.611 486.852 722.127 485.509C721.643 484.167 721.459 482.735 721.589 481.314C721.718 479.893 722.158 478.518 722.876 477.285C723.595 476.052 724.575 474.992 725.747 474.179L710.207 396.992L727.368 402.502L739.807 477.161C741.043 479.221 741.479 481.663 741.034 484.024C740.59 486.385 739.294 488.5 737.394 489.97C735.494 491.439 733.12 492.161 730.723 491.997C728.327 491.834 726.073 490.797 724.39 489.083Z" fill="#9E616A"/>
<path d="M701.444 325.777L712.092 317.74C712.092 317.74 721.485 317.075 723.148 334.014C724.812 350.953 728.228 383.964 728.228 383.964L744.521 459.427L721.967 464.377L704.516 382.939L694.047 358.755L701.444 325.777Z" fill="#2F2E41"/>
<path d="M719 449L659 448L654 407H719V449Z" fill="#9E616A"/>
<path d="M663.531 699.832L649.68 699.831L643.09 646.404L663.533 646.405L663.531 699.832Z" fill="#9E616A"/>
<path d="M751.777 680.645L737.926 680.548L731.711 627.076L749.726 631.209L751.777 680.645Z" fill="#9E616A"/>
<path d="M708.453 371.691L711.591 379.851L710.964 388.011L649.539 409.286L652.587 373.574L659.492 365.414L708.453 371.691Z" fill="#FFB6B6"/>
<path d="M682.102 298.258C694.219 298.258 704.041 288.435 704.041 276.319C704.041 264.203 694.219 254.381 682.102 254.381C669.986 254.381 660.164 264.203 660.164 276.319C660.164 288.435 669.986 298.258 682.102 298.258Z" fill="#9E616A"/>
<path d="M669.727 726.132H659.898L658.144 716.852L653.651 726.132H627.583C626.333 726.132 625.116 725.732 624.11 724.992C623.103 724.252 622.36 723.209 621.988 722.016C621.616 720.823 621.635 719.542 622.043 718.361C622.45 717.18 623.225 716.16 624.253 715.45L645.07 701.073V691.691L666.966 692.998L669.727 726.132Z" fill="#2F2E41"/>
<path d="M759.045 706.997L749.216 706.928L747.527 697.636L742.969 706.884L716.901 706.702C715.652 706.693 714.438 706.285 713.436 705.538C712.435 704.79 711.699 703.742 711.335 702.547C710.972 701.351 711 700.071 711.416 698.892C711.832 697.714 712.613 696.7 713.646 695.997L734.564 681.766L734.629 672.385L756.516 673.845L759.045 706.997Z" fill="#2F2E41"/>
<path d="M756.086 642.62L746 581L734 496C742.788 479.68 723 429 723 429L720.207 429.134L656.986 441.061L657 441C644.069 476.268 639.785 493.691 640.494 531.248L643.041 666.258H642.242C640.916 666.258 639.644 666.785 638.707 667.723C637.769 668.661 637.242 669.932 637.242 671.258C637.242 672.584 637.769 673.856 638.707 674.794C639.644 675.732 640.916 676.258 642.242 676.258H667.242C668.568 676.258 669.84 675.732 670.778 674.794C671.715 673.856 672.242 672.584 672.242 671.258C672.242 669.932 671.715 668.661 670.778 667.723C669.84 666.785 668.568 666.258 667.242 666.258H666.598L689.545 505.502L709 573L731 642C723 640 724.242 644.634 724.242 647.258C724.242 648.584 724.769 649.856 725.707 650.794C726.644 651.732 727.916 652.258 729.242 652.258H754.242C755.405 652.26 756.532 651.855 757.428 651.115C758.325 650.374 758.935 649.344 759.153 648.202C759.372 647.06 759.185 645.877 758.625 644.858C758.065 643.839 757.167 643.048 756.086 642.62Z" fill="#2F2E41"/>
<path d="M727.923 431.626L725.923 411.626C725.716 410.81 725.255 410.081 724.607 409.543C723.96 409.005 723.158 408.686 722.318 408.631C721.485 399.104 717.979 358.003 717.769 356.21L717.761 356.134L716.167 322.076C716.109 320.84 715.597 319.667 714.73 318.784C713.863 317.9 712.7 317.367 711.464 317.286L703.044 316.736C702.928 316.732 702.819 316.683 702.738 316.6C702.658 316.517 702.613 316.406 702.613 316.29C702.613 315.36 702.43 314.44 702.074 313.58C701.718 312.721 701.196 311.941 700.539 311.283C699.881 310.626 699.101 310.104 698.242 309.748C697.382 309.392 696.461 309.209 695.532 309.209H670.6C668.986 309.21 667.426 309.8 666.216 310.868C665.005 311.937 664.226 313.411 664.025 315.013C664.014 315.123 663.961 315.225 663.878 315.299C663.795 315.372 663.688 315.411 663.577 315.409L663.574 315.409C660.741 315.351 657.981 316.31 655.795 318.112C653.609 319.915 652.141 322.441 651.658 325.233C648.25 345.064 641.419 390.073 644.796 415.095C645.972 423.806 643.438 416.907 642.993 424.195C642.949 424.899 643.044 425.606 643.273 426.273C643.503 426.94 643.861 427.556 644.329 428.085C642.271 428.683 641.473 430.906 642.001 433.001L641.562 432.892C641.822 433.921 642.479 434.805 643.39 435.349C644.301 435.893 645.39 436.053 646.419 435.793L723.022 416.482C725.165 415.942 728.463 433.768 727.923 431.626Z" fill="#2F2E41"/>
<path d="M643.607 489.083C644.614 488.072 645.386 486.852 645.87 485.509C646.354 484.167 646.538 482.735 646.408 481.314C646.279 479.893 645.839 478.518 645.121 477.285C644.402 476.052 643.422 474.992 642.25 474.179L657.79 396.992L640.629 402.502L628.19 477.161C626.954 479.221 626.518 481.663 626.963 484.024C627.407 486.385 628.703 488.5 630.603 489.97C632.503 491.439 634.877 492.161 637.274 491.997C639.67 491.834 641.924 490.797 643.607 489.083Z" fill="#9E616A"/>
<path d="M666.553 325.777L655.905 317.74C655.905 317.74 646.513 317.075 644.849 334.014C643.185 350.953 639.77 383.964 639.77 383.964L623.477 459.427L646.031 464.377L663.482 382.939L673.95 358.755L666.553 325.777Z" fill="#2F2E41"/>
<path d="M705.595 256.812C709.682 258.029 713.495 254.61 716.339 251.371L715.328 252.571C722.02 257.284 726.021 264.961 728.618 272.732C731.214 280.495 732.662 288.626 735.592 296.278C738.523 303.921 743.252 311.315 750.492 315.128C760.192 320.235 772.076 317.913 782.392 314.228C782.529 314.177 782.658 314.134 782.795 314.083C778.616 306.278 776.058 297.71 775.272 288.892C779.516 297.177 785.636 304.357 793.145 309.858C799.886 306.794 806.368 303.19 812.527 299.079C816.511 296.415 820.709 292.97 821.172 288.198C821.643 283.46 818.105 279.133 813.932 276.853C809.759 274.574 804.961 273.803 800.403 272.432C795.853 271.07 791.209 268.834 788.818 264.721C783.309 255.261 792.58 241.921 786.668 232.701C783.754 228.169 778.099 226.352 772.856 225.093C764.852 223.178 756.728 221.807 748.539 220.988C741.35 220.269 733.921 220.003 727.084 222.316C720.246 224.63 714.043 230.002 712.578 237.08C708.585 239.179 704.361 241.501 702.219 245.485C700.077 249.461 701.268 255.527 705.595 256.812Z" fill="#2F2E41"/>
<path d="M711.695 255.219C715.609 260.122 717.739 265.424 717.739 268.599C725.87 283.458 714.243 296.221 699.384 304.351C693.457 307.611 686.614 308.804 679.933 307.742L679.312 305.088L678.47 307.479C678.47 307.479 668.795 339.432 665.604 341.307C666.815 335.62 668.202 309.29 668.876 303.74C669.809 296.187 666.556 284.941 664.209 278.103C662.754 273.888 662.007 269.461 661.999 265.003V264.808L659.714 272.148L651.395 268.599C652.942 259.721 651.395 249.643 669.95 250.517C679.986 243.615 688.824 242.564 696.083 244.521C697.02 243.073 702.422 245.786 703.984 245.023" fill="#2F2E41"/>
<path d="M732.471 411.226C732.119 414.373 730.725 417.313 728.511 419.577C726.297 421.842 723.39 423.302 720.251 423.726L675.081 429.846C671.346 430.348 667.565 429.348 664.567 427.064C661.569 424.78 659.599 421.4 659.091 417.666L652.581 369.526C652.157 366.396 652.791 363.215 654.381 360.486L654.071 358.146C652.789 357.679 651.658 356.87 650.801 355.807C649.945 354.744 649.396 353.467 649.212 352.114C649.029 350.761 649.219 349.384 649.762 348.131C650.304 346.878 651.179 345.798 652.291 345.006L657.871 319.156C657.797 318.602 657.838 318.039 657.994 317.502C658.15 316.966 658.416 316.468 658.776 316.04C659.136 315.613 659.581 315.265 660.083 315.02C660.585 314.775 661.133 314.637 661.691 314.616C662.706 314.605 663.69 314.969 664.452 315.64C665.214 316.31 665.702 317.238 665.821 318.246L666.331 322.046C667.013 327.069 669.576 331.645 673.502 334.851C677.429 338.056 682.426 339.651 687.484 339.313C692.541 338.976 697.282 336.73 700.747 333.031C704.212 329.332 706.144 324.455 706.151 319.386C706.151 318.48 706.091 317.574 705.971 316.676L705.471 312.936C705.308 311.897 705.546 310.835 706.136 309.964C706.727 309.093 707.626 308.479 708.651 308.246C709.185 308.145 709.735 308.153 710.265 308.271C710.796 308.389 711.297 308.614 711.738 308.932C712.179 309.251 712.55 309.655 712.829 310.122C713.108 310.589 713.289 311.107 713.361 311.646L716.591 335.446C718.368 335.324 720.13 335.838 721.562 336.897C722.993 337.955 724.001 339.49 724.404 341.224C724.808 342.959 724.58 344.78 723.762 346.362C722.944 347.944 721.59 349.182 719.941 349.856C721.558 350.976 722.924 352.421 723.952 354.097C724.98 355.774 725.647 357.647 725.911 359.596L732.431 407.746C732.589 408.9 732.603 410.069 732.471 411.226Z" fill="#7B2CBF"/>
<path d="M653.427 359.205C653.375 358.811 653.48 358.412 653.721 358.095C653.962 357.779 654.319 357.571 654.713 357.517L716.279 348.08C716.474 348.054 716.673 348.066 716.863 348.116C717.054 348.166 717.232 348.254 717.389 348.373C717.546 348.492 717.677 348.641 717.777 348.812C717.876 348.982 717.94 349.17 717.967 349.365C717.993 349.56 717.981 349.759 717.93 349.949C717.88 350.14 717.793 350.319 717.674 350.475C717.554 350.632 717.405 350.764 717.235 350.863C717.065 350.962 716.877 351.026 716.681 351.053L655.115 360.49C654.721 360.543 654.322 360.438 654.005 360.197C653.689 359.956 653.481 359.599 653.427 359.205Z" fill="#3F3D56"/>
<path d="M660.622 384.475L658.587 369.439C658.43 368.279 658.74 367.105 659.449 366.173C660.158 365.242 661.208 364.631 662.368 364.474L721.17 356.952C722.33 356.795 723.504 357.105 724.436 357.814C725.367 358.524 725.978 359.574 726.135 360.734L728.17 375.77C728.327 376.93 728.017 378.104 727.308 379.036C726.598 379.967 725.548 380.578 724.388 380.735L700.902 383.966C700.95 384.127 700.989 384.29 701.019 384.455L703.097 399.815L722.917 397.133C723.047 397.115 723.179 397.123 723.307 397.156C723.434 397.19 723.553 397.248 723.658 397.328C723.762 397.407 723.85 397.507 723.916 397.62C723.983 397.734 724.026 397.859 724.043 397.99C724.061 398.12 724.053 398.252 724.019 398.379C723.986 398.506 723.927 398.626 723.848 398.73C723.768 398.835 723.668 398.922 723.555 398.988C723.441 399.054 723.315 399.097 723.185 399.115L703.366 401.797L694.447 403.004L675.619 405.552C675.356 405.587 675.09 405.517 674.879 405.356C674.669 405.196 674.53 404.958 674.495 404.695C674.459 404.433 674.529 404.167 674.69 403.956C674.85 403.745 675.088 403.606 675.35 403.57L694.179 401.022L692.1 385.662C692.085 385.495 692.079 385.327 692.083 385.16L665.587 388.257C664.427 388.414 663.252 388.104 662.321 387.395C661.39 386.685 660.779 385.635 660.622 384.475Z" fill="#3F3D56"/>
<path d="M429.499 771.291C429.251 771.291 429.013 771.2 428.83 771.034L0.829581 385.242C0.632976 385.065 0.514918 384.816 0.501319 384.552C0.48772 384.287 0.579698 384.028 0.757056 383.831C0.934414 383.634 1.18266 383.515 1.44729 383.501C1.71191 383.487 1.97129 383.579 2.16846 383.756L430.168 769.548C430.319 769.683 430.425 769.861 430.472 770.058C430.519 770.255 430.505 770.461 430.433 770.65C430.36 770.839 430.232 771.001 430.065 771.116C429.898 771.23 429.701 771.291 429.499 771.291Z" fill="black"/>
<path d="M653.549 381.586C653.57 381.298 653.529 381.008 653.429 380.736C653.328 380.465 653.171 380.218 652.967 380.012C652.764 379.807 652.518 379.647 652.248 379.544C651.977 379.441 651.688 379.398 651.399 379.416C651.291 379.42 651.184 379.434 651.079 379.456L638.419 382.316C638.136 382.385 637.871 382.512 637.64 382.689C637.409 382.867 637.218 383.091 637.079 383.346C636.893 383.353 636.709 383.38 636.529 383.426C635.733 383.607 635.042 384.096 634.607 384.786C634.172 385.476 634.029 386.311 634.209 387.106C634.389 387.902 634.878 388.593 635.568 389.028C636.259 389.463 637.093 389.607 637.889 389.426C638.342 389.321 638.765 389.116 639.129 388.826L643.419 400.906C643.633 401.285 643.964 401.584 644.363 401.759C644.761 401.934 645.205 401.975 645.629 401.876L653.859 400.016C654.279 399.918 654.658 399.689 654.94 399.362C655.222 399.035 655.393 398.627 655.429 398.196L653.549 381.586ZM637.699 388.566C637.417 388.631 637.126 388.639 636.841 388.59C636.556 388.542 636.283 388.438 636.039 388.284C635.794 388.131 635.582 387.93 635.415 387.695C635.247 387.459 635.128 387.193 635.064 386.911C635 386.63 634.991 386.338 635.04 386.053C635.088 385.768 635.192 385.496 635.346 385.251C635.499 385.006 635.7 384.794 635.935 384.627C636.171 384.46 636.437 384.341 636.719 384.276C636.759 384.266 636.799 384.276 636.839 384.266C636.836 384.631 636.929 384.989 637.109 385.306L638.679 388.046C638.406 388.305 638.067 388.485 637.699 388.566Z" fill="#CCCCCC"/>
<path d="M651.401 379.416C651.521 381.016 648.781 382.856 645.111 383.586C641.741 384.276 638.721 383.796 637.871 382.536C638.042 382.435 638.228 382.36 638.421 382.316L651.081 379.456C651.186 379.433 651.294 379.42 651.401 379.416Z" fill="#E6E6E6"/>
<path d="M644.783 411.371L641.108 403.724C638.955 399.245 642.897 394.479 649.895 393.101L658.52 391.646L662.127 416.848L661.38 416.995C654.382 418.374 646.936 415.85 644.783 411.371Z" fill="#7B2CBF"/>
<g opacity="0.2">
<path d="M732.471 411.225C732.118 414.373 730.724 417.312 728.51 419.577C726.296 421.841 723.389 423.301 720.251 423.725L675.081 429.845C672.398 430.208 669.666 429.797 667.209 428.659C664.752 427.522 662.671 425.706 661.211 423.425C662.484 421.886 664.061 420.626 665.844 419.724C667.627 418.823 669.576 418.299 671.571 418.185C675.451 417.985 679.211 419.275 683.011 419.995C692.199 421.727 701.704 420.15 709.841 415.545C713.371 413.495 716.551 410.875 720.431 409.415C724.311 407.965 729.321 408.015 732.131 410.845C732.252 410.965 732.366 411.092 732.471 411.225Z" fill="black"/>
</g>
</g>
<defs>
<clipPath id="clip0_5_6">
<rect width="874.039" height="771.292" fill="white" transform="translate(0.5)"/>
</clipPath>
</defs>
</svg>
