<svg width="1075" height="585" viewBox="0 0 1075 585" fill="none" xmlns="http://www.w3.org/2000/svg">
<g clip-path="url(#clip0_5_96)">
<path d="M540.645 584.232C831.975 584.232 1068.14 568.597 1068.14 549.31C1068.14 530.024 831.975 514.389 540.645 514.389C249.314 514.389 13.1445 530.024 13.1445 549.31C13.1445 568.597 249.314 584.232 540.645 584.232Z" fill="#F2F2F2"/>
<path d="M520.424 167.01C434.48 167.01 372.773 222.149 372.773 350.808C372.773 496.621 434.48 535.218 520.424 535.218C606.368 535.218 671.751 492.945 671.751 350.808C671.751 198.868 606.368 167.01 520.424 167.01ZM520.989 486.818C461.462 486.818 430.363 451.895 430.363 350.902C430.363 261.79 462.736 214.797 522.262 214.797C581.789 214.797 614.161 245.665 614.161 350.902C614.161 449.349 580.516 486.818 520.989 486.818Z" fill="#2F2E41"/>
<path d="M321.312 433.517H285.777V328.878C285.777 323.32 283.57 317.99 279.64 314.06C275.71 310.13 270.379 307.922 264.822 307.922H256.495C253.743 307.922 251.018 308.464 248.476 309.517C245.933 310.57 243.623 312.114 241.677 314.06C239.731 316.006 238.188 318.316 237.134 320.859C236.081 323.401 235.539 326.126 235.539 328.878V433.517H135.309C133.247 433.517 131.22 432.984 129.425 431.97C127.63 430.956 126.127 429.495 125.063 427.729C123.998 425.963 123.409 423.952 123.351 421.891C123.293 419.83 123.768 417.788 124.732 415.965L230.814 215.185C232.137 212.682 232.938 209.937 233.17 207.115C233.403 204.293 233.061 201.454 232.166 198.768C231.27 196.082 229.84 193.606 227.961 191.488C226.082 189.37 223.794 187.655 221.234 186.446L214.971 183.489C210.109 181.193 204.549 180.854 199.444 182.542C194.338 184.23 190.077 187.817 187.542 192.559L58.1605 434.592C55.9573 438.713 54.8047 443.314 54.8047 447.988C54.8047 451.719 55.5397 455.414 56.9677 458.862C58.3957 462.31 60.4888 465.442 63.1275 468.081C65.7661 470.719 68.8987 472.812 72.3463 474.241C75.7938 475.669 79.4889 476.404 83.2205 476.404H235.539V542.571C235.539 545.869 236.189 549.136 237.451 552.183C238.714 555.231 240.564 558 242.896 560.333C245.229 562.665 247.998 564.515 251.046 565.778C254.093 567.04 257.36 567.69 260.658 567.69C263.957 567.69 267.223 567.04 270.271 565.778C273.319 564.515 276.088 562.665 278.42 560.333C280.753 558 282.603 555.231 283.865 552.183C285.128 549.136 285.777 545.869 285.777 542.571V476.404H321.312C326.999 476.404 332.453 474.144 336.474 470.123C340.496 466.102 342.755 460.648 342.755 454.96C342.755 449.273 340.496 443.819 336.474 439.798C332.453 435.777 326.999 433.517 321.312 433.517Z" fill="#7B2CBF"/>
<path d="M979.308 433.517H943.773V328.878C943.773 323.32 941.566 317.99 937.636 314.06C933.706 310.13 928.375 307.922 922.818 307.922H914.491C911.739 307.922 909.014 308.464 906.472 309.517C903.929 310.57 901.619 312.114 899.673 314.06C897.727 316.006 896.184 318.316 895.131 320.859C894.077 323.401 893.535 326.126 893.535 328.878V433.517H793.305C791.243 433.517 789.216 432.984 787.421 431.97C785.626 430.956 784.123 429.495 783.059 427.729C781.995 425.963 781.405 423.952 781.347 421.891C781.289 419.83 781.764 417.788 782.728 415.965L888.81 215.185C890.133 212.682 890.934 209.937 891.167 207.115C891.399 204.293 891.057 201.454 890.162 198.768C889.266 196.082 887.836 193.606 885.957 191.488C884.078 189.37 881.79 187.655 879.23 186.446L872.967 183.489C868.105 181.193 862.546 180.854 857.44 182.542C852.334 184.23 848.073 187.817 845.538 192.559L716.157 434.592C713.953 438.713 712.801 443.314 712.801 447.988C712.801 455.524 715.795 462.752 721.124 468.081C726.453 473.41 733.68 476.404 741.217 476.404H893.535V542.571C893.535 549.233 896.182 555.622 900.893 560.333C905.603 565.043 911.992 567.69 918.654 567.69C925.316 567.69 931.705 565.043 936.416 560.333C941.127 555.622 943.773 549.233 943.773 542.571V476.404H979.308C984.995 476.404 990.449 474.144 994.47 470.123C998.492 466.102 1000.75 460.648 1000.75 454.96C1000.75 449.273 998.492 443.819 994.47 439.798C990.449 435.777 984.995 433.517 979.308 433.517Z" fill="#7B2CBF"/>
<path d="M331.112 421.264H295.578V316.624C295.578 313.872 295.036 311.147 293.983 308.605C292.93 306.062 291.386 303.752 289.44 301.806C287.494 299.86 285.184 298.317 282.642 297.263C280.099 296.21 277.374 295.668 274.622 295.668H266.296C260.738 295.668 255.408 297.876 251.478 301.806C247.548 305.736 245.34 311.066 245.34 316.624V421.264H145.11C143.048 421.264 141.021 420.731 139.226 419.716C137.431 418.702 135.928 417.241 134.864 415.475C133.799 413.709 133.209 411.698 133.151 409.637C133.093 407.576 133.569 405.535 134.532 403.712L240.615 202.931C241.937 200.428 242.739 197.683 242.971 194.861C243.204 192.04 242.862 189.2 241.966 186.514C241.071 183.828 239.641 181.352 237.762 179.234C235.883 177.116 233.594 175.401 231.034 174.192L224.772 171.235C219.91 168.939 214.35 168.6 209.245 170.288C204.139 171.976 199.878 175.563 197.343 180.305L67.9613 422.338C65.7581 426.459 64.6055 431.06 64.6055 435.734C64.6055 443.27 67.5993 450.498 72.9283 455.827C78.2573 461.156 85.4849 464.15 93.0213 464.15H245.34V530.317C245.34 533.616 245.99 536.882 247.252 539.93C248.514 542.977 250.365 545.746 252.697 548.079C255.03 550.411 257.799 552.262 260.846 553.524C263.894 554.786 267.16 555.436 270.459 555.436C277.121 555.436 283.51 552.789 288.221 548.079C292.932 543.368 295.578 536.979 295.578 530.317V464.15H331.112C333.928 464.15 336.717 463.595 339.318 462.517C341.92 461.44 344.284 459.86 346.275 457.869C348.266 455.878 349.846 453.514 350.923 450.913C352.001 448.311 352.555 445.523 352.555 442.707C352.555 439.891 352.001 437.102 350.923 434.501C349.846 431.899 348.266 429.535 346.275 427.544C344.284 425.553 341.92 423.973 339.318 422.896C336.717 421.818 333.928 421.264 331.112 421.264Z" stroke="#3F3D56" stroke-miterlimit="10"/>
<path d="M997.687 421.264H962.152V316.624C962.152 311.066 959.945 305.736 956.015 301.806C952.085 297.876 946.754 295.668 941.197 295.668H932.87C930.118 295.668 927.393 296.21 924.851 297.263C922.308 298.317 919.998 299.86 918.052 301.806C916.106 303.752 914.563 306.062 913.509 308.605C912.456 311.147 911.914 313.872 911.914 316.624V421.264H811.684C809.622 421.264 807.595 420.731 805.8 419.716C804.005 418.702 802.502 417.241 801.438 415.475C800.373 413.709 799.784 411.698 799.726 409.637C799.668 407.576 800.143 405.535 801.107 403.712L907.189 202.931C908.512 200.428 909.313 197.683 909.546 194.861C909.778 192.04 909.436 189.2 908.541 186.514C907.645 183.828 906.215 181.352 904.336 179.234C902.457 177.116 900.169 175.401 897.609 174.192L891.346 171.235C886.484 168.939 880.925 168.6 875.819 170.288C870.713 171.976 866.452 175.563 863.917 180.305L734.536 422.338C732.332 426.459 731.18 431.06 731.18 435.734C731.18 443.27 734.174 450.498 739.503 455.827C744.832 461.156 752.059 464.15 759.596 464.15H911.914V530.317C911.914 536.979 914.561 543.368 919.271 548.079C923.982 552.789 930.371 555.436 937.033 555.436C943.695 555.436 950.084 552.789 954.795 548.079C959.506 543.368 962.152 536.979 962.152 530.317V464.15H997.687C1000.5 464.15 1003.29 463.595 1005.89 462.517C1008.49 461.44 1010.86 459.86 1012.85 457.869C1014.84 455.878 1016.42 453.514 1017.5 450.913C1018.58 448.311 1019.13 445.523 1019.13 442.707C1019.13 437.02 1016.87 431.565 1012.85 427.544C1008.83 423.523 1003.37 421.264 997.687 421.264Z" stroke="#3F3D56" stroke-miterlimit="10"/>
<path d="M540.03 155.982C454.086 155.982 392.379 211.122 392.379 339.78C392.379 485.593 454.086 524.191 540.03 524.191C625.974 524.191 691.357 481.917 691.357 339.78C691.357 187.841 625.974 155.982 540.03 155.982ZM540.595 475.791C481.068 475.791 449.969 440.868 449.969 339.875C449.969 250.763 482.341 203.77 541.868 203.77C601.395 203.77 633.767 234.638 633.767 339.875C633.767 438.322 600.122 475.791 540.595 475.791Z" stroke="#3F3D56" stroke-miterlimit="10"/>
<path d="M611.086 133.756C611.086 133.756 614.338 143.128 617.315 140.633L614.942 128.383L611.086 133.756Z" fill="#FBBEBE"/>
<path d="M1006.86 419.55C1009.89 420.652 1013.14 421.034 1016.34 420.668C1019.54 420.302 1022.62 419.197 1025.32 417.44C1028.02 415.683 1030.28 413.323 1031.91 410.545C1033.55 407.767 1034.51 404.647 1034.74 401.432C1034.96 398.216 1034.43 394.993 1033.2 392.016C1031.96 389.039 1030.06 386.389 1027.62 384.276C1025.19 382.162 1022.3 380.643 1019.18 379.838C1016.05 379.032 1012.79 378.963 1009.64 379.635L1010.16 390.347L1005.09 381.167C1000.12 383.504 996.272 387.72 994.405 392.889C993.742 394.7 993.339 396.596 993.208 398.519C992.888 403.033 994.049 407.528 996.513 411.323C998.977 415.118 1002.61 418.006 1006.86 419.55Z" fill="#3C096C"/>
<path d="M1031.94 543.793C1030.15 534.682 1037.9 526.606 1045.56 521.356C1053.22 516.106 1062.17 510.948 1064.78 502.039C1068.53 489.235 1057.35 477.509 1048.64 467.398C1042.18 459.893 1036.64 451.65 1032.12 442.84C1030.31 439.308 1028.64 435.615 1028.17 431.674C1027.48 425.998 1029.3 420.351 1031.14 414.937C1037.26 396.903 1043.8 379.019 1050.77 361.287" stroke="#3F3D56" stroke-miterlimit="10"/>
<path d="M1007.72 416.793C1010.75 417.894 1013.99 418.276 1017.2 417.91C1020.4 417.544 1023.47 416.439 1026.17 414.682C1028.88 412.926 1031.13 410.565 1032.77 407.787C1034.4 405.009 1035.37 401.89 1035.59 398.674C1035.82 395.459 1035.29 392.235 1034.06 389.258C1032.82 386.281 1030.91 383.631 1028.48 381.518C1026.04 379.404 1023.15 377.885 1020.03 377.08C1016.91 376.275 1013.64 376.205 1010.49 376.877L1011.01 387.589L1005.94 378.409C1000.97 380.746 997.128 384.963 995.261 390.132C994.598 391.942 994.195 393.838 994.064 395.762C993.744 400.275 994.904 404.77 997.368 408.565C999.833 412.36 1003.47 415.249 1007.72 416.793Z" stroke="#3F3D56" stroke-miterlimit="10"/>
<path d="M1029.4 357.588C1030.59 354.308 1032.58 351.38 1035.2 349.074C1037.82 346.767 1040.97 345.157 1044.38 344.391L1046.09 354.575L1049.27 343.879C1053.68 343.944 1057.95 345.41 1061.48 348.064C1065 350.718 1067.59 354.424 1068.87 358.645C1070.15 362.867 1070.06 367.386 1068.6 371.551C1067.15 375.716 1064.41 379.31 1060.78 381.815C1057.15 384.321 1052.81 385.607 1048.4 385.489C1043.99 385.371 1039.73 383.855 1036.24 381.159C1032.75 378.463 1030.2 374.727 1028.97 370.49C1027.74 366.253 1027.89 361.735 1029.4 357.588Z" fill="#3C096C"/>
<path d="M1030.54 353.911C1031.73 350.631 1033.73 347.702 1036.34 345.396C1038.96 343.09 1042.12 341.479 1045.52 340.713L1047.23 350.897L1050.41 340.201C1054.82 340.267 1059.1 341.732 1062.62 344.386C1066.15 347.04 1068.74 350.746 1070.02 354.967C1071.3 359.189 1071.2 363.708 1069.75 367.873C1068.29 372.038 1065.55 375.632 1061.92 378.138C1058.29 380.643 1053.96 381.93 1049.55 381.811C1045.14 381.693 1040.88 380.177 1037.39 377.481C1033.89 374.785 1031.35 371.049 1030.12 366.812C1028.89 362.576 1029.04 358.058 1030.54 353.911Z" stroke="#3F3D56" stroke-miterlimit="10"/>
<path d="M1044.99 467.604C1049.8 469.346 1055.07 469.26 1059.82 467.362C1064.56 465.464 1068.44 461.886 1070.72 457.31C1073 452.735 1073.51 447.482 1072.16 442.552C1070.81 437.623 1067.7 433.362 1063.41 430.581L1060.97 438.8L1059.24 428.496C1059.22 428.488 1059.2 428.482 1059.19 428.476C1056.62 427.542 1053.89 427.124 1051.16 427.245C1048.42 427.366 1045.74 428.024 1043.27 429.181C1040.79 430.339 1038.57 431.973 1036.72 433.99C1034.88 436.008 1033.45 438.369 1032.51 440.939C1031.58 443.509 1031.16 446.238 1031.29 448.969C1031.41 451.7 1032.07 454.38 1033.23 456.857C1034.39 459.333 1036.02 461.557 1038.04 463.401C1040.06 465.245 1042.42 466.673 1044.99 467.604Z" fill="#3C096C"/>
<path d="M1045.98 463.879C1050.78 465.622 1056.06 465.536 1060.81 463.637C1065.55 461.739 1069.43 458.161 1071.71 453.586C1073.98 449.01 1074.5 443.757 1073.15 438.828C1071.8 433.898 1068.69 429.637 1064.4 426.856L1061.96 435.076L1060.23 424.772C1060.21 424.764 1060.19 424.757 1060.17 424.752C1057.6 423.818 1054.88 423.399 1052.14 423.52C1049.41 423.641 1046.73 424.299 1044.26 425.457C1041.78 426.614 1039.55 428.248 1037.71 430.265C1035.86 432.283 1034.43 434.644 1033.5 437.214C1032.57 439.784 1032.15 442.513 1032.27 445.244C1032.4 447.976 1033.06 450.656 1034.22 453.132C1035.37 455.608 1037.01 457.832 1039.03 459.676C1041.05 461.52 1043.41 462.948 1045.98 463.879Z" stroke="#3F3D56" stroke-miterlimit="10"/>
<path d="M1023.32 502.167C1024.15 506.868 1026.57 511.141 1030.17 514.271C1033.77 517.4 1038.34 519.196 1043.11 519.357C1047.88 519.517 1052.56 518.033 1056.37 515.153C1060.17 512.273 1062.87 508.172 1064.01 503.538C1065.15 498.904 1064.66 494.019 1062.63 489.701C1060.59 485.384 1057.14 481.898 1052.84 479.827C1048.54 477.756 1043.66 477.226 1039.01 478.326C1034.37 479.426 1030.25 482.09 1027.33 485.87L1036.61 499.827L1023.94 492.419C1022.95 495.572 1022.74 498.916 1023.32 502.167Z" fill="#3C096C"/>
<path d="M1024.18 499.41C1025.01 504.11 1027.42 508.383 1031.02 511.513C1034.63 514.642 1039.2 516.438 1043.97 516.599C1048.74 516.759 1053.42 515.275 1057.22 512.395C1061.03 509.515 1063.72 505.414 1064.87 500.78C1066.01 496.146 1065.52 491.261 1063.48 486.944C1061.45 482.627 1057.99 479.14 1053.69 477.069C1049.39 474.998 1044.51 474.468 1039.87 475.568C1035.23 476.669 1031.1 479.332 1028.19 483.112L1037.46 497.069L1024.79 489.661C1023.81 492.815 1023.6 496.158 1024.18 499.41Z" stroke="#3F3D56" stroke-miterlimit="10"/>
<path d="M9.00672 470.248C10.997 470.972 13.1282 471.223 15.2322 470.983C17.3362 470.742 19.3556 470.016 21.1312 468.862C22.9068 467.708 24.39 466.157 25.464 464.332C26.538 462.506 27.1734 460.457 27.3201 458.344C27.4668 456.231 27.1208 454.114 26.3094 452.157C25.498 450.201 24.2433 448.46 22.6442 447.072C21.0452 445.683 19.1455 444.685 17.0949 444.156C15.0444 443.627 12.8989 443.582 10.8277 444.023L11.17 451.061L7.84012 445.03C4.57204 446.565 2.04732 449.335 0.820762 452.732C0.38516 453.921 0.120346 455.167 0.0342206 456.43C-0.175962 459.396 0.586246 462.349 2.20534 464.843C3.82443 467.336 6.21217 469.234 9.00672 470.248Z" fill="#3C096C"/>
<path d="M25.4823 551.878C24.3068 545.893 29.4003 540.586 34.4314 537.137C39.4626 533.688 45.3412 530.299 47.0578 524.445C49.525 516.033 42.1762 508.329 36.4564 501.685C32.2129 496.755 28.5687 491.339 25.6001 485.551C24.3095 483.277 23.4305 480.793 23.0035 478.214C22.5525 474.485 23.7505 470.775 24.9574 467.218C28.978 455.369 33.2767 443.619 37.8536 431.969" stroke="#3F3D56" stroke-miterlimit="10"/>
<path d="M9.56924 468.438C11.5595 469.161 13.6907 469.413 15.7947 469.172C17.8987 468.931 19.9181 468.205 21.6937 467.051C23.4693 465.897 24.9525 464.346 26.0265 462.521C27.1005 460.696 27.7359 458.646 27.8826 456.534C28.0293 454.421 27.6833 452.303 26.8719 450.347C26.0604 448.391 24.8058 446.65 23.2067 445.261C21.6077 443.873 19.708 442.875 17.6574 442.346C15.6069 441.817 13.4614 441.771 11.3902 442.213L11.7325 449.251L8.40263 443.219C5.13455 444.755 2.60982 447.525 1.38326 450.921C0.947665 452.111 0.682855 453.356 0.596725 454.62C0.386528 457.585 1.14873 460.539 2.76783 463.032C4.38693 465.526 6.77467 467.423 9.56924 468.438Z" stroke="#3F3D56" stroke-miterlimit="10"/>
<path d="M23.8121 429.539C24.5932 427.384 25.9041 425.46 27.6241 423.944C29.3441 422.429 31.4179 421.371 33.6542 420.868L34.7801 427.559L36.8675 420.531C39.7656 420.574 42.5752 421.537 44.8905 423.281C47.2057 425.025 48.9069 427.459 49.7484 430.233C50.5898 433.007 50.5281 435.976 49.572 438.712C48.6159 441.448 46.815 443.81 44.4292 445.456C42.0435 447.102 39.1963 447.947 36.2989 447.87C33.4014 447.792 30.6035 446.796 28.3092 445.025C26.015 443.253 24.343 440.799 23.5346 438.015C22.7263 435.232 22.8235 432.263 23.8121 429.539Z" fill="#3C096C"/>
<path d="M24.5621 427.123C25.3432 424.967 26.6541 423.044 28.3741 421.528C30.0941 420.013 32.1679 418.955 34.4042 418.452L35.5301 425.142L37.6175 418.115C40.5157 418.158 43.3252 419.121 45.6404 420.865C47.9557 422.609 49.6569 425.043 50.4984 427.817C51.3398 430.591 51.2781 433.56 50.322 436.296C49.3659 439.032 47.565 441.394 45.1792 443.04C42.7935 444.686 39.9463 445.531 37.0488 445.454C34.1514 445.376 31.3535 444.38 29.0592 442.609C26.765 440.837 25.0929 438.383 24.2846 435.599C23.4763 432.816 23.5735 429.847 24.5621 427.123Z" stroke="#3F3D56" stroke-miterlimit="10"/>
<path d="M34.0556 501.822C37.212 502.967 40.6794 502.91 43.7968 501.663C46.9142 500.416 49.4637 498.065 50.9593 495.059C52.4548 492.052 52.792 488.601 51.9064 485.362C51.0208 482.124 48.9744 479.324 46.1573 477.497L44.5533 482.897L43.416 476.127C43.4048 476.122 43.3931 476.118 43.3812 476.114C41.6929 475.5 39.9001 475.225 38.1054 475.304C36.3106 475.384 34.5491 475.816 32.9214 476.576C31.2938 477.336 29.8319 478.41 28.6194 479.736C27.4068 481.061 26.4674 482.613 25.8548 484.302C25.2421 485.99 24.9683 487.783 25.0489 489.578C25.1296 491.373 25.5631 493.134 26.3247 494.761C27.0863 496.388 28.161 497.849 29.4876 499.061C30.8141 500.272 32.3663 501.21 34.0556 501.822Z" fill="#3C096C"/>
<path d="M34.7097 499.375C37.8661 500.52 41.3335 500.463 44.4509 499.216C47.5683 497.969 50.1178 495.618 51.6134 492.612C53.1089 489.606 53.4461 486.154 52.5605 482.915C51.6749 479.677 49.6285 476.877 46.8114 475.05L45.2074 480.45L44.0701 473.68C44.0589 473.675 44.0472 473.671 44.0353 473.667C42.3473 473.055 40.5553 472.781 38.7615 472.861C36.9677 472.942 35.2072 473.374 33.5807 474.135C30.2957 475.671 27.7555 478.449 26.5188 481.858C25.2822 485.267 25.4504 489.028 26.9865 492.313C28.5226 495.598 31.3007 498.138 34.7097 499.375Z" stroke="#3F3D56" stroke-miterlimit="10"/>
<path d="M19.8233 524.531C20.3661 527.619 21.9541 530.426 24.3211 532.482C26.6882 534.539 29.6903 535.718 32.8239 535.824C35.9576 535.93 39.0322 534.954 41.5322 533.062C44.0323 531.17 45.8056 528.475 46.5548 525.431C47.304 522.386 46.9836 519.176 45.6473 516.34C44.3109 513.504 42.04 511.213 39.2152 509.852C36.3904 508.491 33.1837 508.143 30.1327 508.866C27.0818 509.589 24.3722 511.339 22.4583 513.823L28.5507 522.993L20.2263 518.126C19.5808 520.197 19.4426 522.394 19.8233 524.531Z" fill="#3C096C"/>
<path d="M20.3858 522.718C20.9286 525.806 22.5166 528.614 24.8836 530.67C27.2507 532.726 30.2528 533.906 33.3864 534.012C36.5201 534.117 39.5947 533.142 42.0948 531.25C44.5948 529.357 46.3681 526.663 47.1173 523.618C47.8665 520.574 47.5461 517.364 46.2098 514.528C44.8734 511.691 42.6025 509.4 39.7777 508.04C36.9529 506.679 33.7462 506.331 30.6952 507.054C27.6443 507.777 24.9347 509.527 23.0208 512.01L29.1132 521.18L20.7888 516.313C20.1433 518.385 20.0051 520.582 20.3858 522.718Z" stroke="#3F3D56" stroke-miterlimit="10"/>
<path d="M480.945 341.115C490.334 341.115 497.945 331.265 497.945 319.115C497.945 306.965 490.334 297.115 480.945 297.115C471.556 297.115 463.945 306.965 463.945 319.115C463.945 331.265 471.556 341.115 480.945 341.115Z" fill="#2F2E41"/>
<path d="M573.445 341.615C582.834 341.615 590.445 331.765 590.445 319.615C590.445 307.465 582.834 297.615 573.445 297.615C564.056 297.615 556.445 307.465 556.445 319.615C556.445 331.765 564.056 341.615 573.445 341.615Z" fill="#2F2E41"/>
<path d="M560.445 384.615C560.445 394.555 546.565 402.615 529.445 402.615C512.325 402.615 498.445 394.555 498.445 384.615C498.445 376.005 508.855 368.805 522.765 367.045C524.98 366.753 527.212 366.61 529.445 366.615C533.188 366.603 536.921 367.006 540.575 367.816C552.195 370.406 560.445 376.955 560.445 384.615Z" fill="#2F2E41"/>
<path d="M484.945 336.115C494.334 336.115 501.945 326.265 501.945 314.115C501.945 301.965 494.334 292.115 484.945 292.115C475.556 292.115 467.945 301.965 467.945 314.115C467.945 326.265 475.556 336.115 484.945 336.115Z" stroke="#3F3D56" stroke-miterlimit="10"/>
<path d="M577.445 336.615C586.834 336.615 594.445 326.765 594.445 314.615C594.445 302.465 586.834 292.615 577.445 292.615C568.056 292.615 560.445 302.465 560.445 314.615C560.445 326.765 568.056 336.615 577.445 336.615Z" stroke="#3F3D56" stroke-miterlimit="10"/>
<path d="M533.445 397.615C550.566 397.615 564.445 389.556 564.445 379.615C564.445 369.674 550.566 361.615 533.445 361.615C516.324 361.615 502.445 369.674 502.445 379.615C502.445 389.556 516.324 397.615 533.445 397.615Z" stroke="#3F3D56" stroke-miterlimit="10"/>
<path d="M540.947 369.316C540.955 370.573 540.483 371.786 539.627 372.707C539.223 373.149 538.732 373.502 538.185 373.744C537.637 373.986 537.046 374.113 536.447 374.115H526.447C525.215 374.073 524.05 373.544 523.207 372.644C522.364 371.745 521.911 370.548 521.947 369.316C521.942 368.341 522.228 367.386 522.767 366.574C524.98 366.263 527.213 366.109 529.447 366.115C533.195 366.103 536.931 366.533 540.577 367.396C540.824 368.005 540.95 368.658 540.947 369.316Z" fill="white"/>
<path d="M484.945 313.115C487.707 313.115 489.945 310.877 489.945 308.115C489.945 305.354 487.707 303.115 484.945 303.115C482.184 303.115 479.945 305.354 479.945 308.115C479.945 310.877 482.184 313.115 484.945 313.115Z" fill="white"/>
<path d="M577.945 313.115C580.707 313.115 582.945 310.877 582.945 308.115C582.945 305.354 580.707 303.115 577.945 303.115C575.184 303.115 572.945 305.354 572.945 308.115C572.945 310.877 575.184 313.115 577.945 313.115Z" fill="white"/>
<path opacity="0.3" d="M582.945 360.115C585.707 360.115 587.945 357.877 587.945 355.115C587.945 352.354 585.707 350.115 582.945 350.115C580.184 350.115 577.945 352.354 577.945 355.115C577.945 357.877 580.184 360.115 582.945 360.115Z" fill="#7B2CBF"/>
<path opacity="0.3" d="M460.945 360.115C463.707 360.115 465.945 357.877 465.945 355.115C465.945 352.354 463.707 350.115 460.945 350.115C458.184 350.115 455.945 352.354 455.945 355.115C455.945 357.877 458.184 360.115 460.945 360.115Z" fill="#7B2CBF"/>
</g>
<defs>
<clipPath id="clip0_5_96">
<rect width="1074.39" height="584.231" fill="white"/>
</clipPath>
</defs>
</svg>
