<svg width="163" height="50" viewBox="0 0 163 50" fill="none" xmlns="http://www.w3.org/2000/svg">
<g clip-path="url(#clip0_5_2)">
<path d="M12.8954 39.952C11.6314 39.952 10.4874 39.72 9.46341 39.256C8.43941 38.792 7.63141 38.144 7.03941 37.312C6.44741 36.48 6.15141 35.528 6.15141 34.456C6.15141 34.12 6.17541 33.68 6.22341 33.136C6.28741 32.576 6.35941 31.96 6.43941 31.288C6.53541 30.6 6.63941 29.912 6.75141 29.224C6.86341 28.52 6.96741 27.856 7.06341 27.232L8.91141 27.52C8.73541 28.624 8.57541 29.648 8.43141 30.592C8.30341 31.52 8.19941 32.32 8.11941 32.992C8.05541 33.648 8.02341 34.136 8.02341 34.456C8.02341 35.192 8.22341 35.84 8.62341 36.4C9.03941 36.976 9.61541 37.424 10.3514 37.744C11.0874 38.08 11.9354 38.248 12.8954 38.248C13.8554 38.248 14.6794 38.096 15.3674 37.792C16.0554 37.488 16.5834 37.064 16.9514 36.52C17.3194 35.976 17.5034 35.336 17.5034 34.6V16.792H19.3754V34.6C19.3754 35.72 19.0794 36.68 18.4874 37.48C17.9114 38.28 17.1354 38.888 16.1594 39.304C15.1834 39.736 14.0954 39.952 12.8954 39.952ZM26.7678 39.304C26.2078 39.304 25.6078 39.256 24.9678 39.16C24.3438 39.08 23.6558 38.96 22.9038 38.8L23.1918 37.288C24.0398 37.4 24.7438 37.48 25.3038 37.528C25.8798 37.576 26.3678 37.6 26.7678 37.6C28.0958 37.6 29.0638 37.344 29.6718 36.832C30.2798 36.336 30.5838 35.608 30.5838 34.648V23.08L31.5438 23.704H27.4878C26.5598 23.704 25.8398 23.816 25.3278 24.04C24.8318 24.264 24.4878 24.688 24.2958 25.312C24.1038 25.92 24.0078 26.816 24.0078 28C24.0078 29.184 24.1038 30.088 24.2958 30.712C24.4878 31.32 24.8318 31.736 25.3278 31.96C25.8398 32.184 26.5598 32.296 27.4878 32.296H30.5838V34H27.4878C26.0958 34 25.0078 33.792 24.2238 33.376C23.4558 32.944 22.9118 32.288 22.5918 31.408C22.2878 30.512 22.1358 29.376 22.1358 28C22.1358 26.624 22.2878 25.496 22.5918 24.616C22.9118 23.72 23.4558 23.064 24.2238 22.648C25.0078 22.216 26.0958 22 27.4878 22H32.4558V34.624C32.4558 35.616 32.2238 36.464 31.7598 37.168C31.3118 37.872 30.6638 38.4 29.8158 38.752C28.9678 39.12 27.9518 39.304 26.7678 39.304ZM44.5019 34V32.296H47.0939V34H44.5019ZM35.2139 34V32.296H44.1659L42.6299 33.664V28.432C42.6299 27.248 42.4939 26.312 42.2219 25.624C41.9499 24.936 41.5019 24.448 40.8779 24.16C40.2699 23.856 39.4459 23.704 38.4059 23.704H36.4619V22H38.4059C39.6859 22 40.7819 22.2 41.6939 22.6C42.6059 23 43.3019 23.672 43.7819 24.616C44.2619 25.544 44.5019 26.816 44.5019 28.432V34H35.2139ZM47.0939 34V32.296C47.3019 32.296 47.4299 32.376 47.4779 32.536C47.5419 32.68 47.5739 32.88 47.5739 33.136C47.5739 33.392 47.5419 33.6 47.4779 33.76C47.4299 33.92 47.3019 34 47.0939 34ZM58.9777 34V32.296H61.5697V34H58.9777ZM47.0977 34V32.296H57.6817L57.1057 32.8V26.848C57.1057 25.808 56.7777 25.032 56.1217 24.52C55.4817 23.992 54.4977 23.728 53.1697 23.728C52.7537 23.728 52.1537 23.768 51.3697 23.848C50.5857 23.912 49.7617 24.008 48.8977 24.136L48.6817 22.6C49.3377 22.44 50.0577 22.304 50.8417 22.192C51.6257 22.064 52.3857 22 53.1217 22C54.3377 22 55.3777 22.192 56.2417 22.576C57.1217 22.944 57.7937 23.488 58.2577 24.208C58.7377 24.928 58.9777 25.808 58.9777 26.848V34H47.0977ZM47.0977 34C46.8897 34 46.7617 33.92 46.7137 33.76C46.6497 33.6 46.6177 33.392 46.6177 33.136C46.6177 32.88 46.6497 32.68 46.7137 32.536C46.7617 32.376 46.8897 32.296 47.0977 32.296V34ZM61.5697 34V32.296C61.7777 32.296 61.9057 32.376 61.9537 32.536C62.0177 32.68 62.0497 32.88 62.0497 33.136C62.0497 33.392 62.0177 33.6 61.9537 33.76C61.9057 33.92 61.7777 34 61.5697 34ZM52.1857 38.32V36.16H54.0577V38.32H52.1857ZM75.1666 34V32.296H77.7586V34H75.1666ZM61.5586 34V32.296H74.6866L73.2946 33.28V28.12C73.2946 27 73.1666 26.12 72.9106 25.48C72.6546 24.84 72.2146 24.384 71.5906 24.112C70.9826 23.84 70.1506 23.704 69.0946 23.704C68.4226 23.704 67.7506 23.752 67.0786 23.848C66.4226 23.944 65.9106 24.072 65.5426 24.232L66.6706 23.08C66.5746 23.464 66.4786 23.952 66.3826 24.544C66.2866 25.12 66.2066 25.744 66.1426 26.416C66.0786 27.088 66.0466 27.76 66.0466 28.432C66.0466 29.12 66.0786 29.792 66.1426 30.448C66.2066 31.104 66.2786 31.672 66.3586 32.152C66.4386 32.632 66.5026 32.968 66.5506 33.16L64.7746 33.664C64.7106 33.456 64.6306 33.096 64.5346 32.584C64.4546 32.072 64.3746 31.456 64.2946 30.736C64.2306 30.016 64.1986 29.248 64.1986 28.432C64.1986 27.648 64.2306 26.888 64.2946 26.152C64.3746 25.4 64.4626 24.72 64.5586 24.112C64.6706 23.504 64.7746 23.016 64.8706 22.648C65.2226 22.504 65.7826 22.36 66.5506 22.216C67.3186 22.072 68.1666 22 69.0946 22C70.4386 22 71.5586 22.2 72.4546 22.6C73.3666 23 74.0466 23.648 74.4946 24.544C74.9426 25.424 75.1666 26.616 75.1666 28.12V34H61.5586ZM61.5586 34C61.3506 34 61.2226 33.92 61.1746 33.76C61.1106 33.6 61.0786 33.392 61.0786 33.136C61.0786 32.88 61.1106 32.68 61.1746 32.536C61.2226 32.376 61.3506 32.296 61.5586 32.296V34ZM77.7586 34V32.296C77.9666 32.296 78.0946 32.376 78.1426 32.536C78.2066 32.68 78.2386 32.88 78.2386 33.136C78.2386 33.392 78.2066 33.6 78.1426 33.76C78.0946 33.92 77.9666 34 77.7586 34ZM80.6579 34V16.792H82.5299V34H80.6579ZM77.7539 34V32.296H80.6579V34H77.7539ZM77.7539 34C77.5459 34 77.4179 33.92 77.3699 33.76C77.3059 33.6 77.2739 33.392 77.2739 33.136C77.2739 32.88 77.3059 32.68 77.3699 32.536C77.4179 32.376 77.5459 32.296 77.7539 32.296V34ZM86.6673 34V16.792H88.5153V34H86.6673Z" fill="#7B2CBF"/>
<path d="M153 0H123C117.477 0 113 4.47715 113 10V40C113 45.5228 117.477 50 123 50H153C158.523 50 163 45.5228 163 40V10C163 4.47715 158.523 0 153 0Z" fill="#7B2CBF"/>
<path d="M138.113 9.5625H143.771V29.25C143.771 31.0599 143.381 32.6615 142.601 34.0547C141.835 35.4349 140.747 36.5026 139.339 37.2578C137.93 38.013 136.34 38.3906 134.567 38.3906C131.662 38.3906 129.399 37.6289 127.777 36.1055C126.155 34.569 125.344 32.401 125.344 29.6016H131.04C131.04 30.9948 131.323 32.0234 131.889 32.6875C132.454 33.3516 133.347 33.6836 134.567 33.6836C135.648 33.6836 136.509 33.2995 137.151 32.5312C137.792 31.763 138.113 30.6693 138.113 29.25V9.5625Z" fill="white"/>
</g>
<defs>
<clipPath id="clip0_5_2">
<rect width="163" height="50" fill="white"/>
</clipPath>
</defs>
</svg>
