<svg width="732" height="630" viewBox="0 0 732 630" fill="none" xmlns="http://www.w3.org/2000/svg">
<g clip-path="url(#clip0_5_46)">
<path d="M304.607 546.981L312.592 520.976C302.984 510.402 290.941 502.334 277.508 497.471C290.632 519.214 277.915 547.578 283.214 572.417C284.927 580.151 288.357 587.4 293.252 593.628C298.147 599.856 304.381 604.903 311.491 608.394L323.608 623.408C329.961 612.31 333.832 599.966 334.954 587.228C336.077 574.49 334.424 561.659 330.111 549.621C327.624 542.892 324.3 536.502 320.216 530.604C313.016 539.069 304.607 546.981 304.607 546.981Z" fill="#F2F2F2"/>
<path d="M260.699 550.303L256.248 523.467C242.933 518.288 228.556 516.437 214.363 518.075C235.807 531.683 237.075 562.742 252.895 582.61C257.877 588.769 264.181 593.727 271.34 597.119C278.498 600.51 286.329 602.247 294.25 602.201L311.791 610.234C312.527 597.468 310.486 584.694 305.81 572.792C301.134 560.89 293.933 550.143 284.703 541.292C279.476 536.378 273.651 532.142 267.366 528.684C264.696 539.471 260.699 550.303 260.699 550.303Z" fill="#F2F2F2"/>
<path d="M522.038 616.734L509.738 616.733L503.887 569.293L522.04 569.294L522.038 616.734Z" fill="#FFB6B6"/>
<path d="M525.174 628.655L485.516 628.654V628.152C485.516 624.058 487.142 620.132 490.037 617.238C492.932 614.343 496.858 612.717 500.952 612.716H500.953L508.197 607.221L521.712 612.717L525.174 612.717L525.174 628.655Z" fill="#2F2E41"/>
<path d="M720.717 571.871L712.331 580.868L673.637 552.803L686.014 539.525L720.717 571.871Z" fill="#FFB6B6"/>
<path d="M731.576 577.707L704.536 606.717L704.169 606.375C701.174 603.584 699.411 599.717 699.267 595.626C699.123 591.535 700.61 587.554 703.401 584.559L704.321 575.512L717.557 569.372L719.917 566.84L731.576 577.707Z" fill="#2F2E41"/>
<path d="M702.517 545.211L689.517 572.4L609.688 519.545L598.074 503.722L559.995 451.84L544.517 476.4L533.746 502.075C530.236 504.365 527.278 507.406 525.086 510.977C522.895 514.549 521.523 518.563 521.072 522.73L520.579 527.275L527.385 588.458L501.517 596.4L486.66 514.21L491.517 496.4L496.517 471.4L521.69 392.4H589.055L627.692 474.643L630.517 491.4L641.472 503.973L702.517 545.211Z" fill="#2F2E41"/>
<path d="M562.522 263.148L573.862 271.783L587.538 275.986C587.538 275.986 593.192 355.514 598.286 360.609C603.381 365.703 598.786 365.84 599.81 372.458C600.834 379.076 603.322 392.642 603.322 392.642C568.935 410.844 539.289 411.333 515.477 390.032C515.172 388.715 515.327 387.333 515.915 386.115C516.504 384.897 517.491 383.918 518.713 383.338C523.145 380.986 514.627 370.01 518.249 368.175C521.871 366.34 516.777 350.42 516.777 350.42L520.119 317.205L517.478 311.895L523.922 279.406L535.102 275.323L539.568 264.563L562.522 263.148Z" fill="#3F3D56"/>
<path d="M569.627 404.497C569.576 403.061 569.841 401.631 570.403 400.308C570.964 398.986 571.809 397.802 572.878 396.841C573.946 395.88 575.212 395.165 576.587 394.746C577.962 394.327 579.412 394.215 580.835 394.417L596.816 363.354L605.72 379.173L589.179 406.247C588.68 408.614 587.331 410.717 585.386 412.156C583.441 413.596 581.036 414.272 578.626 414.056C576.216 413.84 573.969 412.748 572.31 410.987C570.652 409.225 569.697 406.916 569.627 404.497Z" fill="#FFB6B6"/>
<path d="M596.542 396.897L630.82 343.769L630.707 343.525C630.578 343.245 622.815 326.48 615.294 311.125C614.136 308.76 612.983 306.429 611.865 304.197C611.383 303.233 610.907 302.29 610.439 301.367C607.28 295.139 604.52 289.991 602.873 287.546C599.229 282.018 593.803 277.902 587.497 275.883L587.339 275.842L587.187 275.905C584.103 277.206 581.554 279.52 579.961 282.465C578.368 285.409 577.826 288.809 578.425 292.102C581.398 307.99 588.023 322.969 597.777 335.857L603.334 343.182L584.023 385.167L596.542 396.897Z" fill="#3F3D56"/>
<path d="M478.668 193.251C479.612 194.335 480.306 195.612 480.703 196.994C481.1 198.375 481.189 199.827 480.964 201.246C480.739 202.665 480.206 204.018 479.402 205.209C478.597 206.4 477.542 207.4 476.309 208.139L483.455 242.334L466.576 235.652L462.378 204.204C461.274 202.051 460.998 199.568 461.603 197.225C462.207 194.882 463.65 192.842 465.658 191.492C467.666 190.142 470.099 189.575 472.497 189.9C474.895 190.224 477.09 191.416 478.668 193.251Z" fill="#FFB6B6"/>
<path d="M462.543 216.104L469.369 278.96L469.61 279.079C469.81 279.177 478.457 283.418 489.072 288.469C490.862 289.321 490.606 293.013 492.477 293.895C493.766 294.503 497.171 292.298 498.473 292.907C510.075 298.332 521.807 303.608 526.483 305.038C532.795 307.038 539.601 306.819 545.772 304.417L545.92 304.349L545.998 304.204C547.575 301.251 548.098 297.849 547.481 294.558C546.865 291.268 545.145 288.285 542.606 286.103C530.292 275.634 515.713 268.169 500.02 264.299L491.09 262.108L479.654 217.332L462.543 216.104Z" fill="#3F3D56"/>
<path d="M550.431 259.586C562.819 259.586 572.862 249.544 572.862 237.155C572.862 224.767 562.819 214.725 550.431 214.725C538.043 214.725 528 224.767 528 237.155C528 249.544 538.043 259.586 550.431 259.586Z" fill="#FFB6B6"/>
<path d="M528.16 222.125C530.005 216.759 539.187 213.037 554.074 212.519C568.961 212.001 572.736 229.545 572.736 229.545C582.674 237.607 562.125 259.19 561.13 258.412L561.577 254.357C562.318 247.641 565.463 242.4 561.463 235.4L557.622 235.444C552.661 236.398 547.701 237.352 542.74 238.306L548.613 233.135L548.447 232.879C545.949 234.18 543.231 235.005 540.431 235.313C537.274 235.498 533.823 234.242 532.311 231.465C531.908 230.701 531.661 229.865 531.586 229.005C527.329 230.705 525.383 235.953 525.383 235.953C525.383 235.953 526.315 227.492 528.16 222.125Z" fill="#2F2E41"/>
<path d="M398.846 469.936C401.556 465.863 399.952 460.034 395.264 456.915C390.577 453.796 384.58 454.569 381.871 458.642C379.161 462.714 380.765 468.544 385.453 471.663C390.14 474.781 396.137 474.008 398.846 469.936Z" fill="#F2F2F2"/>
<path d="M343.846 317.936C346.556 313.863 344.952 308.034 340.264 304.915C335.577 301.796 329.58 302.569 326.871 306.642C324.161 310.714 325.765 316.544 330.453 319.663C335.14 322.781 341.137 322.008 343.846 317.936Z" fill="#F2F2F2"/>
<path d="M573.846 551.936C576.556 547.863 574.952 542.034 570.264 538.915C565.577 535.796 559.58 536.569 556.871 540.642C554.161 544.714 555.765 550.544 560.453 553.663C565.14 556.781 571.137 556.008 573.846 551.936Z" fill="#F2F2F2"/>
<path d="M108.846 62.9357C111.556 58.8633 109.952 53.0336 105.264 49.9149C100.577 46.7962 94.5801 47.5693 91.8707 51.6418C89.1613 55.7142 90.765 61.5439 95.4527 64.6626C100.14 67.7813 106.137 67.0082 108.846 62.9357Z" fill="#F2F2F2"/>
<path d="M325.846 14.9357C328.556 10.8632 326.952 5.03361 322.264 1.91487C317.577 -1.20387 311.58 -0.430733 308.871 3.64173C306.161 7.7142 307.765 13.5439 312.453 16.6626C317.14 19.7813 323.137 19.0082 325.846 14.9357Z" fill="#F2F2F2"/>
<path d="M223.143 417.651C225.853 413.578 224.249 407.748 219.561 404.63C214.874 401.511 208.877 402.284 206.168 406.357C203.458 410.429 205.062 416.259 209.75 419.377C214.437 422.496 220.434 421.723 223.143 417.651Z" fill="#E6E6E6"/>
<path d="M670.766 629.614H20.4724C20.1572 629.613 19.8552 629.487 19.6327 629.264C19.4101 629.041 19.2852 628.738 19.2852 628.423C19.2852 628.108 19.4101 627.806 19.6327 627.582C19.8552 627.359 20.1572 627.233 20.4724 627.232H670.766C671.082 627.232 671.385 627.358 671.608 627.581C671.832 627.804 671.957 628.107 671.957 628.423C671.957 628.739 671.832 629.042 671.608 629.265C671.385 629.488 671.082 629.614 670.766 629.614Z" fill="#CCCCCC"/>
<path d="M141.51 234.161C136.04 234.146 130.767 232.114 126.701 228.456C122.634 224.798 120.058 219.769 119.465 214.331L106.77 96.4241C106.146 90.57 107.87 84.7075 111.563 80.1228C115.257 75.5382 120.618 72.6058 126.47 71.9691L503.425 31.3812C509.279 30.7571 515.141 32.4808 519.726 36.1741C524.311 39.8674 527.244 45.2285 527.881 51.0814L540.576 168.988C541.2 174.842 539.476 180.705 535.782 185.289C532.089 189.874 526.728 192.807 520.875 193.444L143.921 234.032C143.12 234.118 142.315 234.161 141.51 234.161Z" fill="#E6E6E6"/>
<path d="M499.27 36.8555C498.561 36.8558 497.854 36.8939 497.149 36.9698L133.786 76.0943C131.245 76.3678 128.783 77.1392 126.541 78.3642C124.298 79.5893 122.319 81.244 120.716 83.2341C119.113 85.2241 117.917 87.5104 117.197 89.9624C116.478 92.4144 116.248 94.9842 116.522 97.5249L122.941 157.14C123.979 166.777 126.904 176.116 131.551 184.623C136.198 193.129 142.474 200.638 150.023 206.719C157.571 212.8 166.244 217.334 175.545 220.064C184.846 222.793 194.593 223.664 204.23 222.626L459.735 195.115C469.344 194.08 478.654 191.163 487.135 186.531C495.616 181.898 503.101 175.64 509.163 168.115C515.226 160.589 519.747 151.944 522.468 142.671C525.189 133.398 526.057 123.68 525.022 114.072L518.58 54.2339C518.066 49.4676 515.812 45.0584 512.248 41.8516C508.685 38.6447 504.063 36.8657 499.27 36.8555Z" fill="white"/>
<path d="M422.753 98.8969L219.664 120.764C219.084 120.828 218.496 120.776 217.935 120.612C217.375 120.448 216.852 120.175 216.397 119.809C215.942 119.443 215.563 118.99 215.283 118.478C215.003 117.965 214.826 117.403 214.764 116.822C214.701 116.241 214.754 115.654 214.919 115.093C215.083 114.533 215.357 114.01 215.723 113.556C216.09 113.101 216.543 112.723 217.056 112.444C217.569 112.164 218.132 111.988 218.713 111.927L421.801 90.0594C422.382 89.9961 422.969 90.0479 423.53 90.2118C424.091 90.3757 424.613 90.6485 425.069 91.0147C425.524 91.3808 425.902 91.8331 426.182 92.3456C426.463 92.8582 426.639 93.4209 426.702 94.0017C426.764 94.5825 426.712 95.1699 426.547 95.7303C426.382 96.2908 426.109 96.8133 425.742 97.2679C425.375 97.7226 424.922 98.1005 424.41 98.38C423.897 98.6595 423.334 98.8351 422.753 98.8969Z" fill="#7B2CBF"/>
<path d="M425.673 126.019L222.584 147.887C221.412 148.013 220.238 147.668 219.32 146.929C218.402 146.189 217.816 145.116 217.69 143.944C217.563 142.772 217.908 141.598 218.647 140.68C219.387 139.762 220.461 139.175 221.633 139.049L424.721 117.182C425.893 117.056 427.067 117.4 427.985 118.14C428.903 118.879 429.489 119.953 429.616 121.125C429.742 122.297 429.397 123.471 428.658 124.389C427.918 125.307 426.845 125.893 425.673 126.019Z" fill="#7B2CBF"/>
<path d="M249.173 172.461L225.506 175.01C224.334 175.136 223.16 174.791 222.242 174.052C221.324 173.312 220.738 172.239 220.611 171.067C220.485 169.895 220.83 168.721 221.569 167.803C222.309 166.885 223.383 166.298 224.554 166.172L248.221 163.624C248.802 163.561 249.39 163.612 249.95 163.776C250.511 163.94 251.034 164.213 251.489 164.579C251.944 164.945 252.323 165.398 252.603 165.91C252.883 166.423 253.059 166.985 253.122 167.566C253.184 168.147 253.132 168.734 252.967 169.295C252.803 169.855 252.529 170.378 252.162 170.832C251.795 171.287 251.343 171.665 250.83 171.944C250.317 172.224 249.754 172.4 249.173 172.461Z" fill="#7B2CBF"/>
<path d="M133.52 101.4C137.938 101.4 141.52 97.8187 141.52 93.4004C141.52 88.9821 137.938 85.4004 133.52 85.4004C129.101 85.4004 125.52 88.9821 125.52 93.4004C125.52 97.8187 129.101 101.4 133.52 101.4Z" fill="#3F3D56"/>
<path d="M491.52 61.4004C495.938 61.4004 499.52 57.8187 499.52 53.4004C499.52 48.9821 495.938 45.4004 491.52 45.4004C487.101 45.4004 483.52 48.9821 483.52 53.4004C483.52 57.8187 487.101 61.4004 491.52 61.4004Z" fill="#3F3D56"/>
<path d="M383.362 225.637C382.627 224.991 382.045 224.19 381.658 223.291C381.271 222.393 381.089 221.419 381.126 220.441C381.528 208.821 379.614 197.238 375.496 186.365C375.147 185.451 375.006 184.47 375.083 183.495C375.16 182.519 375.454 181.573 375.942 180.726C376.41 179.911 377.051 179.209 377.82 178.668C378.588 178.127 379.466 177.761 380.391 177.596C389.69 171.985 399.222 170.409 408.729 172.915C410.262 172.689 411.825 173.017 413.138 173.84C414.451 174.663 415.428 175.928 415.892 177.406C419.741 189.902 421.882 202.861 422.257 215.931C422.293 217.499 421.762 219.027 420.761 220.235C419.761 221.443 418.358 222.249 416.811 222.506L388.678 227.154C387.735 227.312 386.768 227.258 385.849 226.995C384.929 226.733 384.08 226.269 383.362 225.637Z" fill="#7B2CBF"/>
<path d="M385.858 191.781L409.537 187.869C409.732 187.837 409.919 187.768 410.086 187.664C410.254 187.56 410.399 187.424 410.515 187.264C410.63 187.103 410.712 186.922 410.757 186.73C410.802 186.538 410.808 186.339 410.776 186.144C410.744 185.95 410.674 185.763 410.569 185.596C410.465 185.428 410.329 185.283 410.168 185.168C410.008 185.054 409.826 184.972 409.634 184.927C409.442 184.883 409.243 184.877 409.048 184.909L385.369 188.821C384.977 188.887 384.628 189.105 384.397 189.428C384.166 189.752 384.073 190.153 384.137 190.545C384.202 190.937 384.42 191.287 384.742 191.519C385.065 191.751 385.466 191.845 385.858 191.781Z" fill="white"/>
<path d="M387.814 203.62L411.493 199.708C411.886 199.644 412.236 199.426 412.468 199.102C412.7 198.779 412.794 198.377 412.729 197.984C412.664 197.592 412.446 197.241 412.122 197.009C411.799 196.777 411.397 196.684 411.004 196.749L387.325 200.661C387.131 200.692 386.944 200.762 386.776 200.866C386.609 200.97 386.463 201.106 386.348 201.266C386.233 201.426 386.151 201.608 386.106 201.8C386.061 201.992 386.054 202.191 386.086 202.386C386.119 202.58 386.189 202.767 386.293 202.934C386.397 203.102 386.534 203.247 386.694 203.361C386.855 203.476 387.036 203.558 387.228 203.603C387.421 203.647 387.62 203.653 387.814 203.62Z" fill="white"/>
<path d="M389.772 215.46L413.451 211.548C413.843 211.483 414.194 211.265 414.426 210.942C414.657 210.619 414.751 210.216 414.686 209.824C414.621 209.431 414.403 209.081 414.08 208.849C413.757 208.617 413.354 208.524 412.962 208.588L389.283 212.5C389.089 212.533 388.902 212.603 388.735 212.707C388.568 212.811 388.423 212.947 388.308 213.107C388.193 213.267 388.111 213.448 388.067 213.64C388.022 213.832 388.015 214.03 388.047 214.225C388.08 214.419 388.15 214.605 388.254 214.773C388.358 214.94 388.494 215.085 388.654 215.2C388.814 215.314 388.995 215.397 389.187 215.441C389.379 215.486 389.577 215.492 389.772 215.46Z" fill="white"/>
</g>
<defs>
<clipPath id="clip0_5_46">
<rect width="731.077" height="629.614" fill="white" transform="translate(0.5)"/>
</clipPath>
</defs>
</svg>
